<?xml version="1.0" encoding="utf-8" ?><svg xmlns="http://www.w3.org/2000/svg" xmlns:xlink="http://www.w3.org/1999/xlink" width="811" height="200" viewBox="0 0 811 200"><clipPath id="cl_3"><rect y="6.1035156e-05" width="811" height="200"></rect></clipPath><g clip-path="url(#cl_3)"><path fill="white" transform="translate(-107 -671)" d="M604.619 740.669C613.883 723.93 626.737 714.706 646.74 720.962C672.56 729.036 669.624 753.077 669.614 774.641L669.606 812.481L645.264 812.491L645.233 812.048C644.537 801.027 645.754 789.128 645.424 778.141C645.179 770.418 646.224 759.814 643.657 752.427C638.214 736.764 611.425 739.297 610.498 756.715C609.569 774.19 608.919 794.976 609.78 812.424L585.634 812.382L585.702 779.516C585.726 770.668 587.008 753.225 580.59 746.497C571.985 737.474 552.751 741.525 551.973 755.555C550.977 773.518 550.552 794.438 551.387 812.427L525.888 812.431C525.581 793.518 525.488 774.601 525.609 755.686C525.626 744.629 525.362 731.641 525.829 720.684C534.648 721.063 544.97 720.749 553.917 720.75C551.736 723.751 547.144 729.685 545.738 732.799C544.499 734.135 540.622 741.886 539.579 743.898C542.981 739.749 546.446 735.652 549.973 731.609C558.306 724.107 565.01 718.705 577.177 719.399C585.049 719.839 592.416 723.419 597.626 729.338C600.646 732.809 602.512 736.606 604.619 740.669Z"></path><path fill="white" transform="translate(-107 -671)" d="M161.138 719.637C182.826 718.49 191.917 727.642 203.447 744.467C200.068 735.821 197.406 728.946 193.271 720.648C201.822 720.657 209.838 720.747 218.416 720.507C217.321 749.533 218.361 783.144 218.436 812.508L193.153 812.45C195.286 809.008 197.35 805.524 199.344 802C199.999 800.566 204.475 791.511 204.505 791.13C203.448 791.515 200.36 796.314 199.322 797.553C189.788 808.761 177.822 815.053 162.991 814.553C124.246 813.246 112.019 765.021 131.659 736.846C138.958 726.375 148.646 721.603 161.138 719.637ZM176.175 792.38C189.807 789.445 198.444 775.973 195.421 762.36C192.398 748.747 178.87 740.198 165.277 743.309C151.808 746.392 143.354 759.769 146.349 773.258C149.345 786.747 162.667 795.288 176.175 792.38Z"></path><path fill="white" transform="translate(-107 -671)" d="M730.222 719.21C749.798 720.138 757.785 728.846 768.271 744.28C765.344 736.691 761.211 728.182 757.819 720.641L781.495 720.52L781.386 812.445L757.389 812.463C760.448 806.597 764.185 800.754 767.384 794.708C768.607 792.594 769.244 790.418 770.048 788.108C767.305 791.454 764.766 795.347 762.029 798.746C742.898 822.496 706.56 819.067 691.731 792.575C681.81 774.849 683.229 750.52 696.911 735.188C706.368 724.592 716.215 720.109 730.222 719.21ZM737.402 793.253C753.568 789.738 762.579 776.452 758.197 760.28C756.342 753.662 751.853 748.095 745.778 744.881C741.343 742.538 738.136 742.173 733.238 742.225C700.435 745.438 705.704 795.504 737.402 793.253Z"></path><path fill="white" transform="translate(-107 -671)" d="M455.092 719.275C481.569 715.884 505.778 734.609 509.151 761.088C512.525 787.567 493.784 811.763 467.303 815.12C440.846 818.473 416.677 799.753 413.306 773.299C409.936 746.844 428.64 722.663 455.092 719.275ZM464.625 792.547C470.83 791.706 476.112 788.26 479.909 783.337C484.202 777.842 486.061 770.831 485.054 763.931C484.035 756.916 480.527 750.612 474.747 746.396C470.639 743.337 465.575 741.843 460.465 742.181C444.731 743.885 435.909 757.188 438.387 772.291C439.422 778.707 442.961 784.449 448.228 788.256C453.991 792.367 458.13 792.592 464.625 792.547Z"></path><path fill="white" transform="translate(-107 -671)" d="M836.195 719.616C852.932 718.489 863.915 723.068 872.934 737.56C872.224 732.114 871.202 726.244 870.343 720.787C878.295 720.562 886.509 720.585 894.483 720.509C894.281 739.904 894.453 759.51 894.482 778.92C888.548 774.366 881.247 769.55 874.853 765.694C873.138 751.828 864.822 740.472 849.772 740.393C842.81 740.298 836.114 743.061 831.244 748.037C821.195 758.365 821.858 778.031 832.315 787.442C844.363 798.286 863.275 794.842 871.171 780.989C872.496 778.664 873.16 772.787 874.827 770.938L876.267 771.537C882.969 775.572 888.079 779.269 894.502 783.568L894.586 851.431C887.242 851.282 879.361 851.451 871.976 851.478C872.033 835.314 870.944 814.432 871.925 798.752C866.224 807.547 864.034 810.209 853.581 812.997C810.222 824.563 785.316 774.709 805.564 740.102C812.743 727.832 822.82 722.746 836.195 719.616Z"></path><path fill="white" transform="translate(-107 -671)" d="M239.926 720.757C247.653 720.633 255.381 720.581 263.108 720.602C263.822 737.532 263.1 754.953 263.316 771.97C262.938 783.512 267.326 793.757 280.708 793.559C301.997 793.245 299.037 767.056 298.883 753.1C298.733 742.279 298.718 731.457 298.838 720.636C306.926 720.577 315.014 720.578 323.101 720.639C322.841 740.928 322.929 761.22 323.364 781.506L323.448 812.425L298.235 812.214C303.626 802.96 308.133 799.115 312.607 787.649C302.789 800.6 295.937 810.159 279.43 813.812C260.443 818.014 241.973 806.933 238.812 787.712C237.651 780.646 236.471 723.47 238.204 720.964L239.926 720.757Z"></path><path fill="white" transform="translate(-107 -671)" d="M356.829 746.2C364.41 745.986 372.434 745.735 379.96 746.573C379.79 754.276 379.708 762.585 379.546 770.245C379.117 790.621 382.537 791.898 401.439 792.182C401.306 798.389 401.816 805.578 401.26 811.654C400.016 812.801 398.916 812.709 396.997 813.164C381.355 815.581 364.176 814.992 357.077 797.917C355.957 795.195 355.241 792.323 354.953 789.394C354.573 785.479 354.627 748.414 355.421 746.581L356.829 746.2Z"></path><path fill="white" transform="translate(-107 -671)" d="M349.943 720.728C365.819 721.406 385.342 721.05 401.322 720.665C401.243 728.036 401.086 735.524 401.3 742.881C398.571 742.656 395.853 742.754 393.113 742.788C375.646 743.305 357.116 743.004 339.563 742.981C340.07 738.835 339.949 725.291 339.683 721.01C342.987 721.035 346.613 720.842 349.943 720.728Z"></path><path fill="white" transform="translate(-107 -671)" d="M354.818 692.008C363.304 692.069 371.792 692.081 380.279 692.045C380.494 700.929 380.263 710.144 380.153 719.054C372.004 718.787 363.368 718.924 355.179 718.929C355.227 709.891 354.553 701.016 354.818 692.008Z"></path><path fill="white" transform="translate(-107 -671)" d="M505.021 871.444L510.345 871.361C510.496 881.454 510.393 891.855 510.38 901.958C508.681 901.874 506.984 901.761 505.289 901.619L504.514 900.4C499.045 900.776 501.293 902.837 493.696 901.704C488.578 899.219 485.427 894.217 486.757 888.446C487.512 885.149 489.63 882.326 492.586 880.68C496.879 878.329 500.498 879.341 504.824 880.738C505.458 879.038 505.078 873.617 505.021 871.444ZM501.396 896.643C504.586 895.149 506.002 891.383 504.586 888.158C503.171 884.932 499.441 883.425 496.181 884.761C494.001 885.655 492.477 887.661 492.199 890.001C491.921 892.341 492.933 894.647 494.844 896.027C496.754 897.407 499.262 897.642 501.396 896.643Z"></path><path fill="white" transform="translate(-107 -671)" d="M422.636 871.537C431.324 871.36 438.578 869.196 443.93 877.076C444.558 883.375 445.101 886.89 438.755 889.934C439.263 890.726 439.759 891.526 440.244 892.333C441.912 895.062 444.612 898.442 443.893 901.424C442.288 902.413 442.149 902.019 439.854 901.955C438.375 899.591 432.968 889.351 429.84 890.84C427.749 893.924 428.392 898.256 428.475 902.083L422.754 901.963C422.458 892.003 422.624 881.537 422.636 871.537ZM428.515 885.801C431.904 885.71 434.533 885.85 437.774 884.851C440.741 876.354 434.943 876.452 428.503 876.465L428.515 885.801Z"></path><path fill="white" transform="translate(-107 -671)" d="M515.906 871.416C518.323 871.461 519.029 871.063 520.787 872.263C521.641 874.493 521.058 878.959 521.056 881.944C523.351 880.372 526.544 878.762 529.352 878.992C538.855 879.77 537.058 895.303 536.958 901.578L531.035 901.471L531.041 893.669C531.365 889.529 531.578 885.923 527.369 883.792C520.016 884.309 521.597 896.511 521.923 901.586L516.005 901.543L515.906 871.416Z"></path><path fill="white" transform="translate(-107 -671)" d="M596.945 870.865C597.959 870.094 599.316 869.948 600.47 870.486C601.624 871.024 602.385 872.157 602.447 873.429C602.508 874.701 601.86 875.902 600.763 876.549C599.199 877.471 597.187 877.014 596.175 875.507C595.162 874 595.5 871.964 596.945 870.865Z"></path><path fill="white" transform="translate(-107 -671)" d="M477.9 870.692C478.997 870.143 480.304 870.229 481.321 870.915C482.337 871.601 482.905 872.781 482.808 874.003C482.71 875.226 481.961 876.301 480.848 876.816C479.162 877.597 477.163 876.879 476.357 875.206C475.552 873.532 476.239 871.522 477.9 870.692Z"></path><path fill="white" fill-opacity="0.011764706" transform="translate(-107 -671)" d="M545.738 732.799C546.419 732.601 547.609 731.649 548.719 731.113L549.973 731.609C546.446 735.652 542.981 739.749 539.579 743.898C540.622 741.886 544.499 734.135 545.738 732.799Z"></path></g></svg>