<?xml version="1.0" encoding="utf-8" ?><svg xmlns="http://www.w3.org/2000/svg" xmlns:xlink="http://www.w3.org/1999/xlink" width="1344" height="1344" viewBox="0 0 1344 1344"><path fill="#252324" transform="matrix(-1.31145 0.00100137 -0.00100137 -1.31145 1343.95 1342.93)" d="M658.372 290.759C663.34 292.711 685.915 311.207 691.499 315.666C680.817 325.876 668.011 339.383 657.442 350.016L580.406 427.762L320.839 689.177C319.347 690.592 318.349 691.373 316.707 692.628C309.911 685.055 296.042 668.424 291.077 659.62C310.988 641.05 331.203 619.955 350.364 600.507L423.953 526.428L658.372 290.759Z"></path><path fill="#252324" transform="matrix(-1.31145 0.00100137 -0.00100137 -1.31145 1343.95 1342.93)" d="M582.506 256.809C591.9 259.261 616.831 268.061 625.315 272.429C620.952 277.522 614.049 284.241 609.211 289.104L581.343 317.098C550.213 348.974 518.768 380.541 487.012 411.793L286.644 613.363C282.032 617.868 277.488 622.442 273.012 627.082C268.317 617.458 259.939 593.697 257.076 583.597C273.061 569.637 294.644 546.581 309.838 531.078L377.615 462.876L582.506 256.809Z"></path><path fill="#252324" transform="matrix(-1.31145 0.00100137 -0.00100137 -1.31145 1343.95 1342.93)" d="M508.82 248.733C518.893 248.345 529.577 249.194 539.658 248.522C533.235 256.195 519.098 269.148 511.373 276.905C491.723 296.989 471.936 316.939 452.015 336.753L265.818 523.948C260.543 529.282 255.453 534.444 249.958 539.547C250.037 533.453 249.541 527.181 249.547 521.031C249.682 507.382 250.225 493.739 251.175 480.123C262.455 468.322 274.811 456.475 286.343 444.706L428.343 302.334L461.256 269.062C483.017 246.999 477.769 249.051 508.82 248.733Z"></path><path fill="#2E7020" transform="matrix(-1.31145 0.00100137 -0.00100137 -1.31145 1343.95 1342.93)" d="M401.189 677.751C505.936 677.716 612.038 679.188 716.66 677.873C705.758 691.857 693.56 704.781 680.23 716.473C672.623 716.987 662.55 716.726 654.75 716.73L464.125 716.758L385.985 716.849C373.338 716.861 360.691 716.982 348.046 716.944C345.185 716.936 341.043 716.482 339.77 713.474C341.355 710.331 369.493 682.003 374.011 678.073C382.13 677.476 392.874 677.76 401.189 677.751Z"></path><path fill="#2E7020" transform="matrix(-1.31145 0.00100137 -0.00100137 -1.31145 1343.95 1342.93)" d="M442.681 609.179L756.628 609.106C752.416 620.706 744.251 636.32 738.401 647.549C732.808 647.99 724.193 647.791 718.375 647.819L519.431 647.926C481.975 647.882 440.956 647.07 403.708 648.041C412.354 639.725 421.019 629.722 429.768 621.36C433.572 617.724 438.465 612.156 442.681 609.179Z"></path><path fill="#2E7020" transform="matrix(-1.31145 0.00100137 -0.00100137 -1.31145 1343.95 1342.93)" d="M511.439 541.248C519.597 540.797 530.587 541.119 538.895 541.127L590.346 541.159C650.865 541.172 713.049 541.804 773.478 541.001C772.203 553.733 769.48 566.883 766.634 579.351C756.442 578.846 744.565 579.112 734.25 579.098L567.955 579.506L503.302 579.095C493.219 579.109 482.531 578.959 472.519 579.54C477.209 573.515 505.185 545.046 511.439 541.248Z"></path><path fill="#2E7020" transform="matrix(-1.31145 0.00100137 -0.00100137 -1.31145 1343.95 1342.93)" d="M595.892 472.243C654.544 471.659 714.458 472.528 773.248 472.537C774.501 485.897 775.495 496.968 775.415 510.463C759.299 509.764 738.246 510.448 721.75 510.493L540.345 511.034C551.199 498.714 566.029 484.432 577.725 472.559C582.915 472.178 590.513 472.304 595.892 472.243Z"></path><path fill="#2E7020" transform="matrix(-1.31145 0.00100137 -0.00100137 -1.31145 1343.95 1342.93)" d="M387.714 747.204C396.859 747.741 411.716 747.396 421.078 747.404L484.384 747.431L579.68 747.478C597.57 747.486 616.208 747.742 634.036 747.36C627.339 751.368 620.397 754.951 613.25 758.088C592.883 768.43 554.346 776.937 531.676 778.415C489.884 781.49 447.961 774.54 409.397 758.142C404.718 756.193 391.252 750.314 387.714 747.204Z"></path><path fill="#2E7020" transform="matrix(-1.31145 0.00100137 -0.00100137 -1.31145 1343.95 1342.93)" d="M648.349 403.22L710.149 403.239C724.62 403.218 739.934 402.95 754.306 403.32C759.17 416.211 762.742 428.825 766.678 442.023L727.488 442.101C687.831 441.832 648.171 441.974 608.516 442.527C615.95 433.646 624.834 425.264 632.908 416.929C635.811 413.933 644.859 403.964 648.349 403.22Z"></path><path fill="#252324" transform="matrix(-1.31145 0.00100137 -0.00100137 -1.31145 1343.95 1342.93)" d="M410.493 268.042L410.88 268.681C384.036 296.687 355.533 324.101 328.221 351.813L293.878 386.756C286.564 394.201 278.28 403.013 270.479 409.74L270.115 409.44C270.19 408.969 270.256 408.443 270.436 408.004C295.946 345.885 349.594 295.054 410.493 268.042Z"></path><path fill="#2E7020" transform="matrix(-1.31145 0.00100137 -0.00100137 -1.31145 1343.95 1342.93)" d="M711.922 337.757C716.56 339.957 736.12 368.398 739.224 373.91L704.548 374.006C695.218 374.03 685.201 373.88 675.936 374.344C687.037 362.953 700.366 348.216 711.922 337.757Z"></path></svg>