<?xml version="1.0" encoding="utf-8" ?><svg xmlns="http://www.w3.org/2000/svg" xmlns:xlink="http://www.w3.org/1999/xlink" width="1325" height="1325" viewBox="0 0 1325 1325"><path fill="#FADD5D" transform="matrix(-1.29386 2.77257e-05 -2.77257e-05 -1.29386 1324.94 1324.91)" d="M658.36 290.822C665.411 294.051 684.297 310.221 691.294 315.668C678.479 329.945 662.511 345.15 648.825 358.923L572.155 436.207L320.336 690.018L316.996 693.35C306.588 681.281 299.652 672.916 290.756 659.76C309.651 642.346 328.943 622.242 346.968 603.9L415.263 535.062L658.36 290.822Z"></path><path fill="#FADD5D" transform="matrix(-1.29386 2.77257e-05 -2.77257e-05 -1.29386 1324.94 1324.91)" d="M582.621 256.552C597.252 260.925 611.591 266.222 625.551 272.41C612.606 286.845 593.362 305.232 579.565 319.1C552.183 346.954 524.61 374.62 496.85 402.098L287.169 613.009C282.388 617.586 277.407 622.179 273.008 627.109C267.761 617.204 260.233 594.201 256.74 583.436C271.845 570.267 288.488 552.491 302.851 538.047L376.637 463.954L582.621 256.552Z"></path><path fill="#FADD5D" transform="matrix(-1.29386 2.77257e-05 -2.77257e-05 -1.29386 1324.94 1324.91)" d="M502.454 248.778C510.875 247.95 530.017 248.627 539.453 248.744C529.738 259.573 517.453 271.22 507.031 281.682L449.361 339.591L268.395 521.319C262.299 527.548 256.159 533.731 249.973 539.87C248.407 522.294 249.982 497.834 251.027 480.261C257.307 473.052 265.276 465.74 272.069 458.912L309.449 421.321L419.407 311.151C432.589 297.991 445.703 284.762 458.748 271.465C465.03 265.093 472.998 256.432 479.92 251.073C483.406 248.374 497.105 248.966 502.454 248.778Z"></path><path fill="#2E7120" transform="matrix(-1.29386 2.77257e-05 -2.77257e-05 -1.29386 1324.94 1324.91)" d="M374.805 677.569L614.666 677.973L680.279 677.907C691.128 677.892 707.279 678.32 717.642 677.396C705.052 692.166 695.006 702.855 680.638 716.011C677.104 717.127 650.83 716.73 645.141 716.733L581.215 716.839L407.308 716.83L364.321 716.883C358.106 716.9 350.988 717.101 344.792 716.697C343.418 716.608 340.806 714.904 339.884 713.534C341.501 710.131 370.542 680.863 374.805 677.569Z"></path><path fill="#2E7120" transform="matrix(-1.29386 2.77257e-05 -2.77257e-05 -1.29386 1324.94 1324.91)" d="M442.667 609.074L756.569 608.989C754.211 616.877 742.261 639.982 738.115 648.043L718.875 647.956C685.023 647.419 649.876 647.89 615.95 647.885L403.9 648.06C411.756 639.813 419.671 631.622 427.645 623.488C431.725 619.323 438.197 612.48 442.667 609.074Z"></path><path fill="#2E7120" transform="matrix(-1.29386 2.77257e-05 -2.77257e-05 -1.29386 1324.94 1324.91)" d="M511.263 541.116C537.116 540.497 565.475 541.045 591.529 541.046L773.329 540.964C772.415 552.598 768.983 567.711 766.769 579.457L734.25 579.512C647.214 579.415 558.588 578.679 471.659 579.662C476.453 574.129 484.7 566.435 490.098 561.057C495.522 555.654 505.494 545.3 511.263 541.116Z"></path><path fill="#2E7120" transform="matrix(-1.29386 2.77257e-05 -2.77257e-05 -1.29386 1324.94 1324.91)" d="M613.403 472.25L772.913 472.665C773.987 486.205 775.31 496.466 775.376 510.635L704.625 510.805C650.391 511.833 595.051 510.084 540.868 511.004C543.821 506.814 547.936 502.665 551.626 499.076C560.546 490.4 568.936 481.083 577.899 472.476C589.594 472.233 601.679 472.313 613.403 472.25Z"></path><path fill="#2E7120" transform="matrix(-1.29386 2.77257e-05 -2.77257e-05 -1.29386 1324.94 1324.91)" d="M387.302 747.126C407.371 746.878 428.816 747.283 449.003 747.315L556.809 747.328L605.553 747.426C614.321 747.433 626.2 747.763 634.636 746.967C627.812 750.923 620.801 754.547 613.627 757.826C601.814 763.638 579.648 770.451 566.786 773.273C517.602 784.064 462.697 779.776 415.971 760.903C407.238 757.376 395.22 752.1 387.302 747.126Z"></path><path fill="#2E7120" transform="matrix(-1.29386 2.77257e-05 -2.77257e-05 -1.29386 1324.94 1324.91)" d="M647.225 403.131C682.628 402.685 718.487 403.557 753.988 403.097C755.18 407.177 757.518 412.898 758.972 417.159C761.783 425.329 764.217 433.625 766.265 442.02L728.75 442.025C689.482 441.955 648.357 442.774 609.344 442.131C614.575 434.971 640.27 408.407 647.225 403.131Z"></path><path fill="#FADD5D" transform="matrix(-1.29386 2.77257e-05 -2.77257e-05 -1.29386 1324.94 1324.91)" d="M410.496 267.986L410.89 268.355C410.712 268.798 282.023 399.489 270.425 409.949L270.035 409.274C270.315 408.38 270.622 407.494 270.957 406.618C293.782 347.4 353.002 293.134 410.496 267.986Z"></path><path fill="#2E7120" transform="matrix(-1.29386 2.77257e-05 -2.77257e-05 -1.29386 1324.94 1324.91)" d="M711.888 337.829C717.677 341.88 734.625 366.963 739.053 373.703C730.823 373.28 714.658 373.961 705.625 373.993L676.304 374.031C687.431 362.169 700.171 348.918 711.888 337.829Z"></path></svg>